<?xml version="1.0" encoding="UTF-8"?>
<!-- demo: watercolor 单幕（狐狸章）—— 验证 style=watercolor 路径。
     与 line 版同一套几何，只按 characters.md 调色板加 fill、换描边色。 -->
<svg xmlns="http://www.w3.org/2000/svg" viewBox="0 0 600 800" font-family="'Ma Shan Zheng','Noto Serif SC',Georgia,serif">
  <defs>
    <linearGradient id="sky" x1="0" y1="0" x2="0" y2="1">
      <stop offset="0" stop-color="#eef1ef"/><stop offset="1" stop-color="#f7eedd"/>
    </linearGradient>
  </defs>

  <rect width="600" height="800" fill="url(#sky)"/>

  <!-- 星空带 -->
  <g fill="#7d8488" stroke="#7d8488">
    <circle cx="80" cy="90" r="2"/><circle cx="170" cy="60" r="1.4" fill="none" stroke-width="1"/>
    <circle cx="300" cy="110" r="2"/><circle cx="430" cy="70" r="1.6" fill="none" stroke-width="1"/>
    <circle cx="520" cy="140" r="2"/><circle cx="60" cy="230" r="1.4" fill="none" stroke-width="1"/>
    <circle cx="250" cy="200" r="2"/><circle cx="500" cy="260" r="2"/>
    <circle cx="120" cy="350" r="1.6" fill="none" stroke-width="1"/><circle cx="470" cy="370" r="2"/>
    <g stroke-width="1" opacity=".7"><line x1="350" y1="160" x2="350" y2="174"/><line x1="343" y1="167" x2="357" y2="167"/></g>
    <g stroke-width="1" opacity=".7"><line x1="200" y1="300" x2="200" y2="314"/><line x1="193" y1="307" x2="207" y2="307"/></g>
  </g>
  <circle cx="510" cy="410" r="16" fill="#cfe0d6" stroke="#6f8f78" stroke-width="1.2" opacity=".8"/>
  <circle cx="90" cy="470" r="9" fill="#e0d4b8" stroke="#b08a4a" stroke-width="1" opacity=".7"/>

  <!-- 沙地弧（沙漠） -->
  <path d="M30 640 Q300 560 570 640 L570 800 L30 800 Z" fill="#e6cfa0"/>
  <path d="M40 640 Q300 565 560 640" fill="none" stroke="#9c7e44" stroke-width="2.4"/>
  <path d="M120 605 Q140 600 165 604" fill="none" stroke="#9c7e44" stroke-width="1" opacity=".55"/>
  <path d="M380 600 Q405 595 430 600" fill="none" stroke="#9c7e44" stroke-width="1" opacity=".55"/>
  <ellipse cx="250" cy="632" rx="4" ry="2.5" fill="#cdb074" opacity=".7"/>

  <!-- 小王子（墨绿外套 + 芥末围巾） -->
  <g stroke="#3a3a3a" stroke-linejoin="round">
    <path d="M223 588 q-1 14 0 22" fill="none" stroke-width="1.8"/>
    <path d="M247 588 q1 14 0 22" fill="none" stroke-width="1.8"/>
    <path d="M213 606 q12 6 20 0 l0 6 l-20 0 Z" fill="#3a3530" stroke-width="1.2"/>
    <path d="M237 606 q12 6 20 0 l0 6 l-20 0 Z" fill="#3a3530" stroke-width="1.2"/>
    <path d="M235 489 Q210 506 206 588 Q235 596 264 588 Q260 506 235 489 Z" fill="#7a9b6e" stroke-width="1.8"/>
    <line x1="235" y1="491" x2="235" y2="585" stroke-width="1" opacity=".4"/>
    <circle cx="235" cy="518" r="1.4" fill="#3a3a3a" stroke="none"/>
    <circle cx="235" cy="536" r="1.4" fill="#3a3a3a" stroke="none"/>
    <circle cx="235" cy="554" r="1.4" fill="#3a3a3a" stroke="none"/>
    <path d="M212 504 q-5 16 -3 30" fill="none" stroke-width="1.8"/>
    <path d="M258 504 q7 13 11 23" fill="none" stroke-width="1.8"/>
    <circle cx="235" cy="470" r="15" fill="#f1d9b8" stroke-width="2"/>
    <path d="M220 461 Q234 445 250 461 M220 461 Q215 478 221 495 M250 461 Q255 478 249 495" fill="#e8c989" stroke-width="1.2"/>
    <circle cx="230" cy="471" r="1.7" fill="#3a3a3a" stroke="none"/>
    <circle cx="240" cy="471" r="1.7" fill="#3a3a3a" stroke="none"/>
    <path d="M233 476 q1.5 2 3 0" fill="none" stroke-width=".8"/>
    <path d="M230 479 q5 2.5 9 0" fill="none" stroke-width=".8"/>
    <path d="M220 484 q15 8 30 0 l0 8 q-15 6 -30 0 Z" fill="#d8b24a" stroke-width="1.4"/>
    <path d="M249 489 q6 4 9 11" fill="#caa23f" stroke-width="1.2"/>
  </g>

  <!-- 狐狸（赭石） -->
  <g stroke="#7a5230" stroke-linejoin="round">
    <path d="M430 600 q40 -8 36 -56 q-2 -30 -24 -28 q-18 2 -14 30 q4 22 -2 40 Z" fill="#c98a4b" stroke-width="1.8"/>
    <path d="M448 522 q10 0 14 10 q2 12 -8 16 q-12 0 -12 -12 Z" fill="#f3ece0" stroke-width="1.2"/>
    <path d="M344 604 q-12 -34 16 -44 q40 -8 56 14 q8 20 -6 30 q-32 8 -66 0 Z" fill="#c98a4b" stroke-width="1.8"/>
    <path d="M358 588 q16 8 34 0 q-4 14 -17 15 q-14 0 -17 -15 Z" fill="#f3ece0" stroke-width="1.2"/>
    <path d="M336 565 q-22 2 -26 -14 q-2 -16 14 -20 q20 -2 28 12 q6 16 -8 22 Z" fill="#c98a4b" stroke-width="1.8"/>
    <path d="M330 540 l-6 -16 l14 8 Z" fill="#c98a4b" stroke-width="1.4"/>
    <path d="M344 536 l2 -18 l12 10 Z" fill="#c98a4b" stroke-width="1.4"/>
    <path d="M312 556 q-6 -2 -6 -8 l8 2 Z" fill="#f3ece0" stroke-width="1"/>
    <circle cx="320" cy="554" r="1.9" fill="#3a2a1a" stroke="none"/>
    <path d="M312 562 q-4 1 -4 -2" fill="none" stroke-width="1.2"/>
    <path d="M358 616 q6 3 10 0 l0 5 l-10 0 Z" fill="#b9793e" stroke-width="1"/>
    <path d="M380 616 q6 3 10 0 l0 5 l-10 0 Z" fill="#b9793e" stroke-width="1"/>
  </g>

  <!-- 文字带 -->
  <text x="300" y="695" text-anchor="middle" font-size="40" fill="#6b5836" letter-spacing="6">狐 狸</text>
  <line x1="260" y1="715" x2="340" y2="715" stroke="#9c7e44" stroke-width="1.4"/>
  <text x="300" y="745" text-anchor="middle" font-size="16" fill="#6b5836" letter-spacing="3">用心去看 · 才看得清楚</text>

  <rect x="16" y="16" width="568" height="768" fill="none" stroke="#9c7e44" stroke-width="1.2" opacity=".3"/>
</svg>
